<mxfile host="Electron" modified="2024-06-30T12:38:56.711Z" agent="Mozilla/5.0 (Macintosh; Intel Mac OS X 10_15_7) AppleWebKit/537.36 (KHTML, like Gecko) draw.io/21.6.8 Chrome/114.0.5735.289 Electron/25.5.0 Safari/537.36" etag="wwaM4dQbHtg1KkKezVvF" version="21.6.8" type="device">
  <diagram name="Page-1" id="8GlhhRv90TT0iDsPqW3K">
    <mxGraphModel dx="1834" dy="1169" grid="1" gridSize="10" guides="1" tooltips="1" connect="1" arrows="1" fold="1" page="0" pageScale="1" pageWidth="827" pageHeight="1169" math="0" shadow="0">
      <root>
        <mxCell id="0" />
        <mxCell id="1" parent="0" />
        <mxCell id="D23GhbJTyIrvjISunZzs-1" value="&lt;h1&gt;Functional Reqs&lt;/h1&gt;&lt;p&gt;&lt;font style=&quot;font-size: 14px;&quot;&gt;1. One-one Messaging&lt;/font&gt;&lt;/p&gt;&lt;p&gt;&lt;font size=&quot;3&quot;&gt;2. Group Messaging&lt;/font&gt;&lt;/p&gt;&lt;p&gt;&lt;font size=&quot;3&quot;&gt;3. Media sharing&lt;/font&gt;&lt;/p&gt;&lt;p&gt;&lt;font size=&quot;3&quot;&gt;4. Delivery receipts&lt;/font&gt;&lt;/p&gt;" style="text;html=1;strokeColor=default;fillColor=none;spacing=5;spacingTop=-20;whiteSpace=wrap;overflow=hidden;rounded=0;" parent="1" vertex="1">
          <mxGeometry x="-110" y="-30" width="260" height="180" as="geometry" />
        </mxCell>
        <mxCell id="D23GhbJTyIrvjISunZzs-2" value="&lt;h1&gt;Non-Functional Reqs&lt;/h1&gt;&lt;p&gt;&lt;font style=&quot;font-size: 14px;&quot;&gt;1. Reliable - messages have to be delivered&lt;/font&gt;&lt;/p&gt;&lt;p&gt;&lt;font size=&quot;3&quot;&gt;2. Low latency - close to real time messaging&lt;/font&gt;&lt;/p&gt;&lt;p&gt;&lt;font size=&quot;3&quot;&gt;3. Availability &amp;gt; Consistency&lt;/font&gt;&lt;/p&gt;&lt;p&gt;&lt;font size=&quot;3&quot;&gt;4. Scale - &lt;b&gt;2B DAU&lt;/b&gt;&lt;/font&gt;&lt;/p&gt;" style="text;html=1;strokeColor=default;fillColor=none;spacing=5;spacingTop=-20;whiteSpace=wrap;overflow=hidden;rounded=0;" parent="1" vertex="1">
          <mxGeometry x="210" y="-30" width="350" height="180" as="geometry" />
        </mxCell>
        <mxCell id="D23GhbJTyIrvjISunZzs-3" value="WhatsApp Messaging Design" style="text;html=1;strokeColor=none;fillColor=none;align=center;verticalAlign=middle;whiteSpace=wrap;rounded=0;fontSize=22;fontStyle=1" parent="1" vertex="1">
          <mxGeometry x="240" y="-120" width="420" height="30" as="geometry" />
        </mxCell>
        <mxCell id="D23GhbJTyIrvjISunZzs-4" value="&lt;b&gt;Assumptions&lt;/b&gt;&lt;br&gt;&lt;br&gt;1. 1 user 100 messages/day - average&lt;br&gt;2. every 10th message - image&lt;br&gt;3. every 20th message - video&lt;br&gt;&lt;br&gt;&lt;b&gt;1 message = 100B&lt;/b&gt;&lt;br&gt;80B of raw message&lt;br&gt;20B metadata - user-id, recepient-id, device-id, ts, location" style="text;html=1;strokeColor=default;fillColor=none;align=left;verticalAlign=top;whiteSpace=wrap;rounded=0;fontSize=17;" parent="1" vertex="1">
          <mxGeometry x="610" y="-40" width="320" height="250" as="geometry" />
        </mxCell>
        <mxCell id="D23GhbJTyIrvjISunZzs-5" value="&lt;b&gt;Capacity - text&lt;/b&gt;&lt;br&gt;&lt;br&gt;total msgs/day = 2B x 100 x 100B&lt;br&gt;= 2 x 10^9 x 10^4&lt;br&gt;&lt;b&gt;= 20 TB/day&lt;/b&gt;&lt;br&gt;&lt;br&gt;&lt;b style=&quot;border-color: var(--border-color);&quot;&gt;Network Capacity - text&lt;/b&gt;&lt;br&gt;&lt;br&gt;total msgs/sec = 2 x 10^9 x 10^4&lt;br&gt;= 2 x &lt;b&gt;10^6&lt;/b&gt; x 10^3 x 10^4&lt;br&gt;= 2 x&amp;nbsp;&lt;b style=&quot;border-color: var(--border-color);&quot;&gt;12&lt;/b&gt;&amp;nbsp;x 10^3 x 10^4&lt;br&gt;&lt;b&gt;= 240 Mbps [send &amp;amp; receive]&lt;/b&gt;" style="text;html=1;strokeColor=default;fillColor=none;align=left;verticalAlign=top;whiteSpace=wrap;rounded=0;fontSize=17;" parent="1" vertex="1">
          <mxGeometry x="-110" y="220" width="320" height="260" as="geometry" />
        </mxCell>
        <mxCell id="D23GhbJTyIrvjISunZzs-6" value="&lt;b&gt;Capacity - image&lt;/b&gt;&lt;br&gt;&lt;br&gt;total msgs/day = 2B x 10 x 100KB&lt;br&gt;= 2 x 10^9 x 10^3KB&lt;br&gt;&lt;b&gt;= 2 PB/day&lt;/b&gt;&lt;br&gt;" style="text;html=1;strokeColor=default;fillColor=none;align=left;verticalAlign=top;whiteSpace=wrap;rounded=0;fontSize=17;" parent="1" vertex="1">
          <mxGeometry x="250" y="220" width="320" height="150" as="geometry" />
        </mxCell>
        <mxCell id="D23GhbJTyIrvjISunZzs-11" style="edgeStyle=orthogonalEdgeStyle;rounded=0;orthogonalLoop=1;jettySize=auto;html=1;fillColor=#f8cecc;strokeColor=#CC0000;jumpStyle=arc;strokeWidth=2;startArrow=classic;startFill=1;" parent="1" source="D23GhbJTyIrvjISunZzs-7" target="D23GhbJTyIrvjISunZzs-9" edge="1">
          <mxGeometry relative="1" as="geometry" />
        </mxCell>
        <mxCell id="D23GhbJTyIrvjISunZzs-7" value="A" style="rounded=1;whiteSpace=wrap;html=1;" parent="1" vertex="1">
          <mxGeometry x="-100" y="800" width="40" height="70" as="geometry" />
        </mxCell>
        <mxCell id="D23GhbJTyIrvjISunZzs-8" value="B" style="rounded=1;whiteSpace=wrap;html=1;" parent="1" vertex="1">
          <mxGeometry x="-100" y="940" width="40" height="70" as="geometry" />
        </mxCell>
        <mxCell id="D23GhbJTyIrvjISunZzs-12" style="edgeStyle=orthogonalEdgeStyle;rounded=0;orthogonalLoop=1;jettySize=auto;html=1;exitX=1;exitY=0.25;exitDx=0;exitDy=0;fillColor=#f8cecc;strokeColor=#CC0000;jumpStyle=arc;strokeWidth=2;startArrow=classic;startFill=1;" parent="1" source="D23GhbJTyIrvjISunZzs-9" target="D23GhbJTyIrvjISunZzs-10" edge="1">
          <mxGeometry relative="1" as="geometry" />
        </mxCell>
        <mxCell id="D23GhbJTyIrvjISunZzs-14" style="edgeStyle=orthogonalEdgeStyle;rounded=0;orthogonalLoop=1;jettySize=auto;html=1;strokeColor=#4D9900;strokeWidth=2;startArrow=classic;startFill=1;" parent="1" source="D23GhbJTyIrvjISunZzs-9" target="D23GhbJTyIrvjISunZzs-13" edge="1">
          <mxGeometry relative="1" as="geometry">
            <Array as="points">
              <mxPoint x="245" y="960" />
              <mxPoint x="245" y="1020" />
            </Array>
          </mxGeometry>
        </mxCell>
        <mxCell id="D23GhbJTyIrvjISunZzs-34" style="edgeStyle=orthogonalEdgeStyle;rounded=0;orthogonalLoop=1;jettySize=auto;html=1;entryX=1;entryY=0.5;entryDx=0;entryDy=0;strokeColor=#4D9900;strokeWidth=2;startArrow=classic;startFill=1;" parent="1" source="D23GhbJTyIrvjISunZzs-9" target="D23GhbJTyIrvjISunZzs-8" edge="1">
          <mxGeometry relative="1" as="geometry">
            <Array as="points">
              <mxPoint x="5" y="930" />
              <mxPoint x="5" y="975" />
            </Array>
          </mxGeometry>
        </mxCell>
        <mxCell id="D23GhbJTyIrvjISunZzs-9" value="Web Sockets&lt;br&gt;API&lt;br&gt;Gateway" style="rounded=0;whiteSpace=wrap;html=1;" parent="1" vertex="1">
          <mxGeometry x="70" y="710" width="70" height="340" as="geometry" />
        </mxCell>
        <mxCell id="D23GhbJTyIrvjISunZzs-22" style="edgeStyle=orthogonalEdgeStyle;rounded=0;orthogonalLoop=1;jettySize=auto;html=1;entryX=-0.007;entryY=-0.1;entryDx=0;entryDy=0;entryPerimeter=0;" parent="1" source="D23GhbJTyIrvjISunZzs-10" target="D23GhbJTyIrvjISunZzs-17" edge="1">
          <mxGeometry relative="1" as="geometry" />
        </mxCell>
        <mxCell id="D23GhbJTyIrvjISunZzs-26" style="edgeStyle=orthogonalEdgeStyle;rounded=0;orthogonalLoop=1;jettySize=auto;html=1;entryX=0.5;entryY=0;entryDx=0;entryDy=0;entryPerimeter=0;fillColor=#f8cecc;strokeColor=#CC0000;jumpStyle=arc;strokeWidth=2;" parent="1" source="D23GhbJTyIrvjISunZzs-10" target="D23GhbJTyIrvjISunZzs-24" edge="1">
          <mxGeometry relative="1" as="geometry" />
        </mxCell>
        <mxCell id="D23GhbJTyIrvjISunZzs-54" style="edgeStyle=orthogonalEdgeStyle;rounded=0;orthogonalLoop=1;jettySize=auto;html=1;entryX=0;entryY=0.5;entryDx=0;entryDy=0;" parent="1" source="D23GhbJTyIrvjISunZzs-10" target="D23GhbJTyIrvjISunZzs-51" edge="1">
          <mxGeometry relative="1" as="geometry">
            <Array as="points">
              <mxPoint x="410" y="670" />
              <mxPoint x="540" y="670" />
              <mxPoint x="540" y="650" />
            </Array>
          </mxGeometry>
        </mxCell>
        <mxCell id="D23GhbJTyIrvjISunZzs-10" value="Sessions Service A" style="rounded=0;whiteSpace=wrap;html=1;fontStyle=1;fillColor=#ffe6cc;strokeColor=#d79b00;" parent="1" vertex="1">
          <mxGeometry x="350" y="750" width="120" height="60" as="geometry" />
        </mxCell>
        <mxCell id="D23GhbJTyIrvjISunZzs-21" style="edgeStyle=orthogonalEdgeStyle;rounded=0;orthogonalLoop=1;jettySize=auto;html=1;entryX=-0.007;entryY=-0.1;entryDx=0;entryDy=0;entryPerimeter=0;" parent="1" source="D23GhbJTyIrvjISunZzs-13" target="D23GhbJTyIrvjISunZzs-17" edge="1">
          <mxGeometry relative="1" as="geometry" />
        </mxCell>
        <mxCell id="D23GhbJTyIrvjISunZzs-27" style="edgeStyle=orthogonalEdgeStyle;rounded=0;orthogonalLoop=1;jettySize=auto;html=1;entryX=0.5;entryY=0;entryDx=0;entryDy=0;entryPerimeter=0;" parent="1" source="D23GhbJTyIrvjISunZzs-13" target="D23GhbJTyIrvjISunZzs-24" edge="1">
          <mxGeometry relative="1" as="geometry">
            <Array as="points">
              <mxPoint x="590" y="1020" />
              <mxPoint x="590" y="990" />
              <mxPoint x="710" y="990" />
            </Array>
          </mxGeometry>
        </mxCell>
        <mxCell id="D23GhbJTyIrvjISunZzs-13" value="Sessions Service B" style="rounded=0;whiteSpace=wrap;html=1;fontStyle=1;fillColor=#ffe6cc;strokeColor=#d79b00;" parent="1" vertex="1">
          <mxGeometry x="350" y="990" width="120" height="60" as="geometry" />
        </mxCell>
        <mxCell id="D23GhbJTyIrvjISunZzs-15" value="client lookup table" style="swimlane;fontStyle=1;childLayout=stackLayout;horizontal=1;startSize=30;horizontalStack=0;resizeParent=1;resizeParentMax=0;resizeLast=0;collapsible=1;marginBottom=0;whiteSpace=wrap;html=1;" parent="1" vertex="1">
          <mxGeometry x="320" y="830" width="140" height="120" as="geometry" />
        </mxCell>
        <mxCell id="D23GhbJTyIrvjISunZzs-16" value="client A: SS A" style="text;strokeColor=none;fillColor=none;align=left;verticalAlign=middle;spacingLeft=4;spacingRight=4;overflow=hidden;points=[[0,0.5],[1,0.5]];portConstraint=eastwest;rotatable=0;whiteSpace=wrap;html=1;" parent="D23GhbJTyIrvjISunZzs-15" vertex="1">
          <mxGeometry y="30" width="140" height="30" as="geometry" />
        </mxCell>
        <mxCell id="D23GhbJTyIrvjISunZzs-17" value="client C: SS A" style="text;strokeColor=none;fillColor=none;align=left;verticalAlign=middle;spacingLeft=4;spacingRight=4;overflow=hidden;points=[[0,0.5],[1,0.5]];portConstraint=eastwest;rotatable=0;whiteSpace=wrap;html=1;" parent="D23GhbJTyIrvjISunZzs-15" vertex="1">
          <mxGeometry y="60" width="140" height="30" as="geometry" />
        </mxCell>
        <mxCell id="D23GhbJTyIrvjISunZzs-18" value="client B: SS B" style="text;strokeColor=none;fillColor=none;align=left;verticalAlign=middle;spacingLeft=4;spacingRight=4;overflow=hidden;points=[[0,0.5],[1,0.5]];portConstraint=eastwest;rotatable=0;whiteSpace=wrap;html=1;" parent="D23GhbJTyIrvjISunZzs-15" vertex="1">
          <mxGeometry y="90" width="140" height="30" as="geometry" />
        </mxCell>
        <mxCell id="D23GhbJTyIrvjISunZzs-25" style="edgeStyle=orthogonalEdgeStyle;rounded=0;orthogonalLoop=1;jettySize=auto;html=1;entryX=0.5;entryY=1;entryDx=0;entryDy=0;entryPerimeter=0;fillColor=#f8cecc;strokeColor=#CC0000;jumpStyle=arc;strokeWidth=2;" parent="1" source="D23GhbJTyIrvjISunZzs-23" target="D23GhbJTyIrvjISunZzs-24" edge="1">
          <mxGeometry relative="1" as="geometry" />
        </mxCell>
        <mxCell id="D23GhbJTyIrvjISunZzs-23" value="Message Service" style="rounded=0;whiteSpace=wrap;html=1;fillColor=#ffe6cc;strokeColor=#d79b00;fontStyle=1" parent="1" vertex="1">
          <mxGeometry x="1010" y="870" width="120" height="60" as="geometry" />
        </mxCell>
        <mxCell id="D23GhbJTyIrvjISunZzs-24" value="QUEUE" style="shape=cylinder3;whiteSpace=wrap;html=1;boundedLbl=1;backgroundOutline=1;size=15;rotation=-90;" parent="1" vertex="1">
          <mxGeometry x="790" y="865" width="60" height="220" as="geometry" />
        </mxCell>
        <mxCell id="D23GhbJTyIrvjISunZzs-28" value="Consumer" style="text;html=1;align=center;verticalAlign=middle;resizable=0;points=[];autosize=1;strokeColor=none;fillColor=none;" parent="1" vertex="1">
          <mxGeometry x="1030" y="840" width="80" height="30" as="geometry" />
        </mxCell>
        <mxCell id="D23GhbJTyIrvjISunZzs-29" value="{&lt;br&gt;&lt;span style=&quot;white-space: pre;&quot;&gt;&#x9;&lt;/span&gt;id: 123,&lt;br&gt;&lt;span style=&quot;white-space: pre;&quot;&gt;&#x9;&lt;/span&gt;msg: &#39;hello&#39;,&lt;br&gt;&lt;span style=&quot;white-space: pre;&quot;&gt;&#x9;&lt;/span&gt;senderId: &#39;A&#39;,&lt;br&gt;&lt;span style=&quot;white-space: pre;&quot;&gt;&#x9;&lt;/span&gt;recepientId: &#39;B_ID&#39;,&lt;br&gt;&lt;span style=&quot;white-space: pre;&quot;&gt;&#x9;&lt;/span&gt;destGw: SSB,&lt;br&gt;&lt;span style=&quot;white-space: pre;&quot;&gt;&#x9;&lt;/span&gt;type: &quot;media&quot;,&lt;br&gt;&lt;span style=&quot;white-space: pre;&quot;&gt;&#x9;&lt;/span&gt;loc: &#39;https://sss&#39;&lt;br&gt;}" style="text;html=1;align=left;verticalAlign=middle;resizable=0;points=[];autosize=1;strokeColor=default;fillColor=none;fontStyle=1" parent="1" vertex="1">
          <mxGeometry x="672.5" y="750" width="160" height="140" as="geometry" />
        </mxCell>
        <mxCell id="D23GhbJTyIrvjISunZzs-30" value="Message Service" style="rounded=0;whiteSpace=wrap;html=1;fillColor=#ffe6cc;strokeColor=#d79b00;fontStyle=1" parent="1" vertex="1">
          <mxGeometry x="1020" y="880" width="120" height="60" as="geometry" />
        </mxCell>
        <mxCell id="D23GhbJTyIrvjISunZzs-31" value="Message Service" style="rounded=0;whiteSpace=wrap;html=1;fillColor=#ffe6cc;strokeColor=#d79b00;fontStyle=1" parent="1" vertex="1">
          <mxGeometry x="1030" y="890" width="120" height="60" as="geometry" />
        </mxCell>
        <mxCell id="D23GhbJTyIrvjISunZzs-33" style="edgeStyle=orthogonalEdgeStyle;rounded=0;orthogonalLoop=1;jettySize=auto;html=1;entryX=0.5;entryY=1;entryDx=0;entryDy=0;strokeColor=#4D9900;strokeWidth=2;" parent="1" source="D23GhbJTyIrvjISunZzs-32" target="D23GhbJTyIrvjISunZzs-13" edge="1">
          <mxGeometry relative="1" as="geometry">
            <Array as="points">
              <mxPoint x="1100" y="1110" />
              <mxPoint x="410" y="1110" />
            </Array>
          </mxGeometry>
        </mxCell>
        <mxCell id="D23GhbJTyIrvjISunZzs-32" value="Message Service" style="rounded=0;whiteSpace=wrap;html=1;fillColor=#ffe6cc;strokeColor=#d79b00;fontStyle=1" parent="1" vertex="1">
          <mxGeometry x="1040" y="900" width="120" height="60" as="geometry" />
        </mxCell>
        <mxCell id="D23GhbJTyIrvjISunZzs-36" style="edgeStyle=orthogonalEdgeStyle;rounded=0;orthogonalLoop=1;jettySize=auto;html=1;entryX=-0.043;entryY=0.85;entryDx=0;entryDy=0;entryPerimeter=0;startArrow=classic;startFill=1;fontColor=#4D9900;fontSize=16;strokeWidth=2;strokeColor=#4D9900;" parent="1" source="D23GhbJTyIrvjISunZzs-35" target="D23GhbJTyIrvjISunZzs-9" edge="1">
          <mxGeometry relative="1" as="geometry" />
        </mxCell>
        <mxCell id="D23GhbJTyIrvjISunZzs-35" value="C" style="rounded=1;whiteSpace=wrap;html=1;" parent="1" vertex="1">
          <mxGeometry x="-100" y="1050" width="40" height="70" as="geometry" />
        </mxCell>
        <mxCell id="D23GhbJTyIrvjISunZzs-37" value="one-one" style="text;html=1;align=center;verticalAlign=middle;resizable=0;points=[];autosize=1;strokeColor=default;fillColor=none;fontStyle=1" parent="1" vertex="1">
          <mxGeometry x="672.5" y="718" width="70" height="30" as="geometry" />
        </mxCell>
        <mxCell id="D23GhbJTyIrvjISunZzs-38" value="{&lt;br&gt;&lt;span style=&quot;white-space: pre;&quot;&gt;&#x9;&lt;/span&gt;id: 123,&lt;br&gt;&lt;span style=&quot;white-space: pre;&quot;&gt;&#x9;&lt;/span&gt;msg: &#39;hello&#39;,&lt;br&gt;&lt;span style=&quot;white-space: pre;&quot;&gt;&#x9;&lt;/span&gt;senderId: &#39;A&#39;,&lt;br&gt;&lt;span style=&quot;white-space: pre;&quot;&gt;&#x9;&lt;/span&gt;recepientId: &#39;group_ID&#39;,&lt;br&gt;}" style="text;html=1;align=left;verticalAlign=middle;resizable=0;points=[];autosize=1;strokeColor=default;fillColor=none;" parent="1" vertex="1">
          <mxGeometry x="850" y="755" width="170" height="100" as="geometry" />
        </mxCell>
        <mxCell id="D23GhbJTyIrvjISunZzs-39" value="group" style="text;html=1;align=center;verticalAlign=middle;resizable=0;points=[];autosize=1;strokeColor=default;fillColor=none;" parent="1" vertex="1">
          <mxGeometry x="855" y="718" width="50" height="30" as="geometry" />
        </mxCell>
        <mxCell id="D23GhbJTyIrvjISunZzs-40" value="message&lt;br&gt;TBD" style="shape=cylinder3;whiteSpace=wrap;html=1;boundedLbl=1;backgroundOutline=1;size=15;" parent="1" vertex="1">
          <mxGeometry x="710" y="1170" width="60" height="80" as="geometry" />
        </mxCell>
        <mxCell id="D23GhbJTyIrvjISunZzs-42" style="edgeStyle=orthogonalEdgeStyle;rounded=0;orthogonalLoop=1;jettySize=auto;html=1;entryX=0;entryY=0.5;entryDx=0;entryDy=0;entryPerimeter=0;" parent="1" source="D23GhbJTyIrvjISunZzs-41" target="D23GhbJTyIrvjISunZzs-40" edge="1">
          <mxGeometry relative="1" as="geometry" />
        </mxCell>
        <mxCell id="D23GhbJTyIrvjISunZzs-43" style="edgeStyle=orthogonalEdgeStyle;rounded=0;orthogonalLoop=1;jettySize=auto;html=1;entryX=0;entryY=1;entryDx=0;entryDy=0;startArrow=classic;startFill=1;endArrow=none;endFill=0;" parent="1" source="D23GhbJTyIrvjISunZzs-41" target="D23GhbJTyIrvjISunZzs-13" edge="1">
          <mxGeometry relative="1" as="geometry" />
        </mxCell>
        <mxCell id="D23GhbJTyIrvjISunZzs-41" value="Delivery Retry Service" style="rounded=0;whiteSpace=wrap;html=1;fillColor=#ffe6cc;strokeColor=#d79b00;fontStyle=1" parent="1" vertex="1">
          <mxGeometry x="490" y="1180" width="120" height="60" as="geometry" />
        </mxCell>
        <mxCell id="D23GhbJTyIrvjISunZzs-44" value="" style="html=1;outlineConnect=0;whiteSpace=wrap;fillColor=#ffff99;shape=mxgraph.archimate3.event;" parent="1" vertex="1">
          <mxGeometry x="480" y="1160" width="30" height="10" as="geometry" />
        </mxCell>
        <mxCell id="D23GhbJTyIrvjISunZzs-45" value="&quot;client_connected&quot;" style="text;html=1;align=center;verticalAlign=middle;resizable=0;points=[];autosize=1;strokeColor=none;fillColor=none;fontStyle=1" parent="1" vertex="1">
          <mxGeometry x="505" y="1150" width="130" height="30" as="geometry" />
        </mxCell>
        <mxCell id="D23GhbJTyIrvjISunZzs-46" value="conversations_db&lt;br&gt;&lt;br&gt;MySQL" style="shape=cylinder3;whiteSpace=wrap;html=1;boundedLbl=1;backgroundOutline=1;size=15;" parent="1" vertex="1">
          <mxGeometry x="1060" y="1210" width="100" height="100" as="geometry" />
        </mxCell>
        <mxCell id="D23GhbJTyIrvjISunZzs-48" style="edgeStyle=orthogonalEdgeStyle;rounded=0;orthogonalLoop=1;jettySize=auto;html=1;entryX=0;entryY=1;entryDx=0;entryDy=-15;entryPerimeter=0;" parent="1" source="D23GhbJTyIrvjISunZzs-47" target="D23GhbJTyIrvjISunZzs-24" edge="1">
          <mxGeometry relative="1" as="geometry">
            <Array as="points">
              <mxPoint x="940" y="1070" />
              <mxPoint x="915" y="1070" />
            </Array>
          </mxGeometry>
        </mxCell>
        <mxCell id="D23GhbJTyIrvjISunZzs-49" style="edgeStyle=orthogonalEdgeStyle;rounded=0;orthogonalLoop=1;jettySize=auto;html=1;entryX=0;entryY=0.5;entryDx=0;entryDy=0;entryPerimeter=0;" parent="1" source="D23GhbJTyIrvjISunZzs-47" target="D23GhbJTyIrvjISunZzs-46" edge="1">
          <mxGeometry relative="1" as="geometry" />
        </mxCell>
        <mxCell id="D23GhbJTyIrvjISunZzs-47" value="Group Message Service" style="rounded=0;whiteSpace=wrap;html=1;fillColor=#ffe6cc;strokeColor=#d79b00;fontStyle=1" parent="1" vertex="1">
          <mxGeometry x="880" y="1210" width="120" height="60" as="geometry" />
        </mxCell>
        <mxCell id="D23GhbJTyIrvjISunZzs-50" value="object store" style="shape=cylinder3;whiteSpace=wrap;html=1;boundedLbl=1;backgroundOutline=1;size=15;" parent="1" vertex="1">
          <mxGeometry x="882.5" y="570" width="60" height="80" as="geometry" />
        </mxCell>
        <mxCell id="D23GhbJTyIrvjISunZzs-52" style="edgeStyle=orthogonalEdgeStyle;rounded=0;orthogonalLoop=1;jettySize=auto;html=1;entryX=0;entryY=0;entryDx=0;entryDy=52.5;entryPerimeter=0;" parent="1" source="D23GhbJTyIrvjISunZzs-51" target="D23GhbJTyIrvjISunZzs-50" edge="1">
          <mxGeometry relative="1" as="geometry" />
        </mxCell>
        <mxCell id="D23GhbJTyIrvjISunZzs-51" value="Media Service" style="rounded=0;whiteSpace=wrap;html=1;fillColor=#ffe6cc;strokeColor=#d79b00;fontStyle=1" parent="1" vertex="1">
          <mxGeometry x="610" y="620" width="120" height="60" as="geometry" />
        </mxCell>
        <mxCell id="D23GhbJTyIrvjISunZzs-57" style="edgeStyle=orthogonalEdgeStyle;rounded=0;orthogonalLoop=1;jettySize=auto;html=1;" parent="1" source="D23GhbJTyIrvjISunZzs-55" target="D23GhbJTyIrvjISunZzs-56" edge="1">
          <mxGeometry relative="1" as="geometry" />
        </mxCell>
        <mxCell id="D23GhbJTyIrvjISunZzs-58" style="edgeStyle=orthogonalEdgeStyle;rounded=0;orthogonalLoop=1;jettySize=auto;html=1;entryX=0.25;entryY=0;entryDx=0;entryDy=0;startArrow=classic;startFill=1;endArrow=none;endFill=0;" parent="1" source="D23GhbJTyIrvjISunZzs-55" target="D23GhbJTyIrvjISunZzs-10" edge="1">
          <mxGeometry relative="1" as="geometry" />
        </mxCell>
        <mxCell id="D23GhbJTyIrvjISunZzs-55" value="Message Tracker Service" style="rounded=0;whiteSpace=wrap;html=1;fillColor=#ffe6cc;strokeColor=#d79b00;fontStyle=1" parent="1" vertex="1">
          <mxGeometry x="310" y="550" width="120" height="60" as="geometry" />
        </mxCell>
        <mxCell id="D23GhbJTyIrvjISunZzs-56" value="message&lt;br&gt;status" style="shape=cylinder3;whiteSpace=wrap;html=1;boundedLbl=1;backgroundOutline=1;size=15;" parent="1" vertex="1">
          <mxGeometry x="490" y="540" width="60" height="80" as="geometry" />
        </mxCell>
        <mxCell id="D23GhbJTyIrvjISunZzs-59" value="sent/delivered/read - user_id" style="text;html=1;align=center;verticalAlign=middle;resizable=0;points=[];autosize=1;strokeColor=none;fillColor=none;fontStyle=1" parent="1" vertex="1">
          <mxGeometry x="540" y="565" width="190" height="30" as="geometry" />
        </mxCell>
        <mxCell id="dwC0uhyVd29SFMhPLqcC-2" style="edgeStyle=orthogonalEdgeStyle;rounded=0;orthogonalLoop=1;jettySize=auto;html=1;entryX=1;entryY=0;entryDx=0;entryDy=52.5;entryPerimeter=0;" parent="1" source="dwC0uhyVd29SFMhPLqcC-1" target="D23GhbJTyIrvjISunZzs-50" edge="1">
          <mxGeometry relative="1" as="geometry" />
        </mxCell>
        <mxCell id="dwC0uhyVd29SFMhPLqcC-1" value="CDNs&lt;br&gt;for media" style="ellipse;shape=cloud;whiteSpace=wrap;html=1;fillColor=#0050ef;strokeColor=#001DBC;fontColor=#ffffff;" parent="1" vertex="1">
          <mxGeometry x="1060" y="560" width="120" height="80" as="geometry" />
        </mxCell>
        <mxCell id="dwC0uhyVd29SFMhPLqcC-3" value="cache&lt;br&gt;REDIS" style="ellipse;whiteSpace=wrap;html=1;fillColor=#d80073;strokeColor=#A50040;fontColor=#ffffff;" parent="1" vertex="1">
          <mxGeometry x="460" y="865" width="80" height="60" as="geometry" />
        </mxCell>
        <mxCell id="46DTdIsI3szm7RkTuyPc-3" value="&lt;b&gt;Sessions Service - &lt;/b&gt;app server&lt;br&gt;&lt;br&gt;1. 2B users can be connected simultaneously&lt;br&gt;2. each server can handle 1M connections (FreeBSD)&lt;br&gt;3. no. of Sessions Service - servers required:&lt;br&gt;= (2 x 10 ^ 9) / 10^6&amp;nbsp;&lt;br&gt;= (200000 x 10 ^ 5) / 50000&lt;br&gt;= 2 x 10^3&lt;br&gt;= 2K servers" style="text;html=1;strokeColor=default;fillColor=none;align=left;verticalAlign=top;whiteSpace=wrap;rounded=0;fontSize=17;" vertex="1" parent="1">
          <mxGeometry x="-60" y="1320" width="380" height="230" as="geometry" />
        </mxCell>
      </root>
    </mxGraphModel>
  </diagram>
</mxfile>
